<?xml version="1.0" standalone="no"?>
<!DOCTYPE svg PUBLIC "-//W3C//DTD SVG 20010904//EN"
 "http://www.w3.org/TR/2001/REC-SVG-20010904/DTD/svg10.dtd">
<svg version="1.0" xmlns="http://www.w3.org/2000/svg"
 width="225.000000pt" height="225.000000pt" viewBox="0 0 225.000000 225.000000"
 preserveAspectRatio="xMidYMid meet">

<g transform="translate(0.000000,225.000000) scale(0.100000,-0.100000)"
fill="#000000" stroke="none">
<path d="M456 1950 c4 -25 16 -75 29 -112 16 -46 21 -82 18 -115 -7 -83 -11
-91 -41 -95 -24 -3 -27 -7 -24 -33 2 -16 6 -92 9 -167 2 -89 8 -140 16 -146 7
-5 34 -17 61 -27 l49 -19 19 24 c16 20 22 22 39 12 29 -18 53 -14 79 13 13 14
32 25 42 25 20 0 24 16 6 23 -7 3 3 5 22 6 29 0 31 -2 15 -9 -13 -6 11 -9 75
-9 52 0 105 -3 118 -7 l23 -7 -33 -35 c-36 -38 -33 -37 44 13 28 19 64 37 79
40 15 4 33 13 40 21 6 8 21 14 33 13 20 0 21 -1 1 -9 -11 -5 -14 -9 -7 -9 8
-1 12 -10 10 -23 -2 -17 -16 -25 -66 -38 -62 -17 -104 -39 -48 -24 26 6 28 5
21 -12 -19 -46 -35 -110 -35 -138 0 -23 -3 -27 -12 -18 -13 13 -12 79 2 118 9
22 8 25 -3 16 -8 -7 -16 -9 -19 -6 -8 8 -28 -55 -28 -89 0 -19 -8 -36 -25 -49
-14 -11 -37 -42 -50 -68 -13 -26 -30 -50 -37 -53 -9 -4 -9 -6 2 -6 8 -1 27 19
43 43 43 68 87 121 87 103 0 -15 66 -47 99 -47 12 0 22 -10 27 -27 l7 -28 6
27 c3 15 34 56 69 92 l63 65 -37 40 c-20 23 -40 38 -45 35 -5 -3 -8 -1 -7 4 4
12 -10 12 -39 1 -16 -6 -27 -24 -38 -66 -9 -32 -21 -69 -27 -83 -20 -45 -22 6
-3 76 18 69 27 80 65 86 16 2 31 15 44 41 17 32 24 37 55 37 43 0 166 -42 201
-68 13 -10 28 -34 33 -53 8 -28 11 -31 16 -15 6 16 12 13 46 -25 l38 -44 -24
44 c-46 84 -140 144 -254 164 -67 11 -82 29 -30 35 16 2 47 17 68 34 34 27 37
34 32 62 -11 54 -39 69 -117 61 -61 -6 -73 -3 -140 26 -124 55 -195 56 -237 5
-8 -9 -17 -16 -21 -16 -17 0 5 57 32 83 17 17 19 17 44 0 22 -14 26 -14 22 -3
-2 8 -18 20 -34 25 -46 16 -52 22 -75 85 -15 41 -27 60 -39 60 -17 0 -40 56
-40 98 0 27 -10 52 -21 52 -19 0 -7 -71 30 -183 l40 -117 -45 -11 c-25 -6 -50
-19 -57 -29 -15 -21 -89 -60 -115 -60 -11 0 -33 5 -51 11 l-32 11 7 69 c4 41
2 87 -4 112 -6 23 -18 76 -27 118 -9 42 -22 85 -30 95 -14 17 -14 15 -9 -26z
m401 -327 c-8 -8 -37 -17 -63 -20 -36 -3 -45 -2 -34 6 8 6 25 11 36 11 12 0
32 9 45 19 27 22 40 8 16 -16z m186 -37 c21 -16 19 -17 -50 -31 -29 -6 -33 -4
-33 14 0 14 8 21 28 24 15 2 29 5 32 5 3 1 13 -5 23 -12z m-113 -36 c-6 -11
-15 -20 -20 -20 -14 0 -12 27 3 33 23 10 28 7 17 -13z m-153 -7 c-9 -9 -20
-13 -24 -9 -4 4 -1 11 7 16 25 16 35 11 17 -7z m471 -24 c56 15 63 9 19 -17
-22 -13 -39 -17 -48 -11 -8 5 -26 9 -40 9 -15 0 -30 7 -33 16 -6 15 -8 15 -30
0 -21 -13 -28 -14 -50 -2 -20 10 -23 16 -14 23 26 20 44 19 97 -5 50 -23 59
-24 99 -13z m-432 16 c-11 -8 -22 -12 -25 -9 -6 6 19 24 34 24 6 -1 1 -7 -9
-15z m44 -10 c-7 -9 -15 -13 -19 -10 -3 3 1 10 9 15 21 14 24 12 10 -5z m-125
-35 c-3 -5 -11 -10 -16 -10 -6 0 -7 5 -4 10 3 6 11 10 16 10 6 0 7 -4 4 -10z
m620 -30 c-10 -11 -43 -29 -74 -41 -31 -11 -60 -24 -66 -28 -5 -4 -26 -8 -45
-9 l-35 -1 35 11 c19 5 69 27 110 48 87 44 100 47 75 20z m-240 -90 c-3 -5
-21 -10 -38 -10 -18 0 -44 -7 -59 -14 -15 -8 -30 -11 -33 -6 -2 4 -35 6 -72 4
-60 -3 -56 -2 30 11 54 7 106 16 115 18 32 9 63 7 57 -3z m-415 -48 c0 -22
-26 -30 -79 -25 -32 3 -66 1 -77 -4 -23 -12 -44 -6 -44 13 0 7 6 11 13 8 7 -2
31 0 52 5 51 11 135 14 135 3z m436 -172 c-9 -35 -14 -45 -15 -29 -1 25 18 93
25 87 1 -2 -3 -28 -10 -58z"/>
<path d="M901 1191 c-51 -72 -66 -121 -66 -226 0 -84 3 -107 22 -142 13 -24
20 -43 18 -43 -15 0 39 -81 72 -108 21 -17 48 -41 61 -54 13 -12 37 -29 55
-36 39 -17 19 -28 -23 -13 -22 7 -30 7 -31 -2 -1 -7 -5 -1 -9 13 -5 16 -8 19
-9 8 -1 -9 -6 -20 -13 -24 -8 -5 -9 -2 -5 10 5 14 3 15 -13 6 -24 -13 -40 -13
-40 1 0 6 7 9 15 5 19 -7 19 -1 -1 18 -20 20 -38 21 -30 1 3 -10 -1 -15 -12
-15 -15 0 -15 -2 -2 -10 11 -7 6 -10 -20 -10 -19 0 -55 -5 -80 -12 -25 -6 -58
-10 -73 -9 -17 1 -26 -3 -22 -9 3 -5 15 -10 25 -10 10 0 20 -5 22 -10 3 -11
52 -15 326 -25 101 -4 181 -9 178 -12 -2 -3 -83 -4 -179 -3 -105 0 -178 -3
-182 -9 -11 -19 34 -31 122 -32 100 -2 183 -16 104 -18 -28 -1 -41 -5 -35 -10
5 -5 67 -11 139 -13 115 -3 130 -1 133 14 2 13 -7 18 -45 23 -119 17 -97 23
60 18 112 -4 167 -3 167 4 0 10 -100 25 -280 42 -72 7 -54 8 117 10 223 1 294
12 143 22 -58 4 -34 5 63 2 112 -2 157 0 157 8 0 8 24 9 84 4 57 -5 86 -4 90
4 5 8 -16 11 -71 11 -56 0 -74 3 -63 10 11 8 7 9 -14 4 -23 -6 -27 -4 -21 7 7
11 6 12 -6 3 -18 -15 -108 -22 -113 -9 -2 5 1 18 5 27 14 27 -11 33 -35 8 -13
-15 -16 -21 -6 -18 11 4 15 -2 15 -18 0 -23 0 -23 -15 -4 -11 14 -22 18 -40
13 l-25 -6 25 28 c25 28 24 28 -45 -8 -64 -34 -76 -37 -150 -36 -105 1 -188
12 -192 24 -8 28 18 40 109 46 88 6 128 0 128 -21 0 -4 -12 -13 -27 -19 -25
-10 -24 -10 12 -5 72 10 179 95 219 173 31 58 63 243 36 201 -5 -8 -10 -32
-10 -52 0 -42 -16 -51 -24 -15 -3 12 -3 -1 -1 -29 3 -39 -1 -59 -17 -85 -34
-57 -99 -129 -129 -145 -26 -13 -32 -13 -59 1 -29 15 -30 17 -30 89 0 77 -5
87 -49 101 -16 5 -21 4 -17 -4 9 -14 -24 -2 -43 16 -7 8 -21 11 -32 8 -13 -4
-22 2 -33 24 -23 43 -35 47 -26 7 4 -18 11 -39 14 -45 9 -14 -14 -120 -27
-128 -12 -7 5 95 19 120 4 6 -15 -8 -42 -33 -27 -25 -46 -47 -41 -48 15 -7 67
-91 67 -109 0 -11 -6 -27 -12 -36 -12 -15 -17 -15 -67 11 -30 15 -79 51 -110
79 -50 48 -54 54 -40 68 16 16 18 16 119 -10 14 -4 -3 8 -37 25 -60 32 -63 34
-83 96 -12 35 -26 62 -31 58 -5 -3 -9 1 -9 8 0 10 -2 10 -9 -1 -12 -19 -18 -3
-20 55 -2 62 19 133 54 186 31 47 27 63 -4 19z m339 -353 c0 -2 -11 -25 -25
-52 -14 -27 -25 -59 -26 -70 0 -12 -3 -15 -6 -9 -4 11 21 102 34 126 4 6 23
10 23 5z m-103 -78 c-9 -25 -27 -42 -27 -26 0 15 21 56 29 56 5 0 4 -13 -2
-30z m163 -220 c14 -4 -8 -5 -50 -2 -41 2 -77 6 -79 8 -8 7 104 2 129 -6z"/>
<path d="M1485 1182 c-11 -2 -32 -15 -46 -28 -22 -21 -32 -23 -75 -19 l-49 5
40 -15 c51 -20 59 -32 75 -106 12 -54 11 -64 -3 -89 -24 -41 -21 -44 16 -16
27 20 40 23 78 19 58 -7 79 12 79 70 0 31 3 38 10 27 8 -12 10 -11 10 7 0 12
-4 33 -10 47 -12 33 -83 98 -91 84 -5 -7 -8 -6 -10 3 -2 8 -13 13 -24 11z
m-23 -64 c-7 -7 -12 -8 -12 -2 0 14 12 26 19 19 2 -3 -1 -11 -7 -17z"/>
<path d="M749 585 c36 -16 89 -21 61 -6 -8 5 -33 11 -55 15 l-40 6 34 -15z"/>
<path d="M605 550 c-4 -6 8 -10 29 -10 20 0 36 5 36 10 0 6 -13 10 -29 10 -17
0 -33 -4 -36 -10z"/>
</g>
</svg>
